<svg xmlns="http://www.w3.org/2000/svg" viewBox="0 0 715.62 300"><title>Asset 3</title><path d="M75.21,50,52.83,142.39H96.37L75.21,50M244.66,122.8c0-32.34-9.95-44.77-23.32-44.77-17.1,0-20.53,12.75-20.53,66.53v13.68c0,56.27,5.9,67.16,21.14,67.16,14.91,0,22.7-13.69,22.7-41ZM541.23,229.11c-14.31-.31-31.72-1.24-31.72-1.24-12.13,4.67-19.9,14.91-19.9,29.53,0,23.93,20.84,34.83,42.3,34.83,27.35,0,49.43-10.58,49.43-34.22C581.34,235.95,563,229.73,541.23,229.11ZM376.15,50l-22.39,92.36h43.54Zm171.61,63.44c0-21.46-2.19-38.87-19.6-38.87-14.59,0-19.27,16.48-19.27,38.87v27c0,24.85,5.26,36.68,19.27,36.68,14.32,0,19.6-10.88,19.6-36.68Zm131.48,21.14c0-46-5.6-60.31-20.82-60.31-16.17,0-22.08,9.95-22.08,59.67v4.67h42.91v-4ZM93,231.6v-8.09h12.12c6.19,0,9.32-3.1,7.78-10.25L98.54,151.07H50.68L37.93,204.23c-3.1,12.78,0,19.28,12.41,19.28h7.47v8.09H0v-8.09H5.59c11.82,0,17.74-5.58,20.84-18.34L77.09.63h29.22L156.69,212c1.85,8.07,7.45,11.48,14,11.48h7.47v8.09Zm154.19,0V210.46c-4,13.38-14.62,23.63-30.78,23.63-32.65,0-56.89-36.07-56.89-81.44,0-46.95,24.25-83.63,56.27-83.63,14.3,0,25.18,9,28.92,18.64V19.28c0-9.64-1.88-11.83-10.92-11.83H222.89V0h59.39V213.56c0,8.4,3.4,9.95,7.75,9.95h14.3v8.09Zm147.33,0v-8.09H406c6.23,0,9.33-3.1,7.78-10.25l-14.31-62.18H351.61l-12.75,53.15c-3.12,12.78,0,19.28,12.45,19.28h6.81v8.09H307.45v-8.09h1.24c10.89,0,15.55-5.58,18.66-18.34L378,.63h29.2L457.59,212c1.87,8.07,7.45,11.48,14,11.48h5.59v8.09Zm199-131.19c-7.75,0-15.54-6.53-15.54-15.24,0-7.15,3.74-9,3.74-14a6.71,6.71,0,0,0-6.86-6.85c-6.83,0-10.23,4-12.41,13.68,13,11.52,21.43,26.12,21.43,47.57,0,40.1-23.62,58.44-56,58.44-15.84,0-30.46-7.15-38.23-15.24-4,2.49-9,8.09-9,12.74,0,9,8.09,12.45,23.94,12.75l38.23.63c37.3.63,55,20.84,55,47.86,0,28.6-22.37,57.22-72.11,57.22-36.39,0-63.43-14.61-63.43-39.48,0-15.87,13.68-29.85,37-33.26-17.11-.93-33.88-14.61-33.88-32.66,0-13.68,7.46-23,19.89-29.82-8.71-10.26-12.42-23-12.42-39.17,0-34.82,22.37-58.14,55-58.14,14,0,24,3.12,29.55,7.46A25.48,25.48,0,0,1,582.6,54.41c15.52,0,26.72,12.12,26.72,28C609.32,93.26,601.85,100.41,593.44,100.41Zm42.9,46.95V152c0,51.29,3.44,73.68,29.23,73.68s39.18-18.65,39.18-49.42v-2.8H715V175c0,29.53-14.92,58.13-49.42,58.13-42.91,0-69.31-30.15-69.31-81.76,0-48.79,23.92-84.24,62.47-84.24,37,0,56.88,30.79,56.88,71.19v9Z" fill="#fff"/></svg>