<svg xmlns="http://www.w3.org/2000/svg" viewBox="0 0 488.67 300"><title>Asset 5</title><path d="M0,300V0H488.67V300ZM191.49,128.33l-22.9-37.79a59.85,59.85,0,0,0,6.81-4,28.94,28.94,0,0,0,5.51-5.58c10.38-14.09,4.19-34.35-12.12-36.91-12.22-1.92-24.86-1.19-37.42-1.65v85.88H142.2V91.89h15.94l20.62,36.44Zm176.69,0L340.7,42.93H326.59l-27.47,85.39H311l7.38-23H349l7.22,23ZM273.91,43H221.22v85.27h52.66v-9.63h-42V88h34.55V78.13H231.89V52.55h42ZM101.79,59.54c-3.87-7.25-8.48-13.16-16-16.16-14.48-5.78-30.67.41-37.38,15.38-8.08,18-7.85,36.59.34,54.58C54.06,125,64,130.22,76.69,129.95s21-7.39,27.4-17.89l-8.67-6c-2.16,2.67-3.9,5.14-6,7.31-9.76,10.32-25.37,8-30.82-5.06a63.62,63.62,0,0,1-4.09-18.16c-1-9.68,0-19.32,4.49-28.2,6.45-12.88,21.33-14,29.82-2.4,1.15,1.58,2.2,3.23,3.33,4.9Zm25.12,112,32.75,85.59,3.58-.33,32.56-85.17H183.94l-22.57,60.57-22.59-60.66Zm295.53,85.33c0-1.52,0-2.86,0-4.2,0-8.52-.11-17,.08-25.55a14.25,14.25,0,0,1,1.66-6.33c6.69-12.16,13.58-24.22,20.39-36.32,2.36-4.2,4.7-8.41,7.24-13H438.71L416.93,211.2l-21.77-39.56H382.09c.76,1.4,1.32,2.48,1.91,3.54q8.06,14.41,16.12,28.82c3.77,6.77,8.92,13.2,10.79,20.47s.46,15.43.48,23.19c0,3.07,0,6.15,0,9.26ZM95.58,171.68H51.52v9.58h16.1v66.1h-16v9.55H95.48v-9.71H79.24V181.11H95.58Zm146.21,75.78H225.73v9.38h43.82v-9.58H253v-66.2h16.53v-9.45H225.69v9.64h16.1Zm170-194.87v75.57h11V52.49h22.78V43H388.33v9.56ZM304.93,181.3h23.66v75.56h10.94V181h22.75v-9.35H304.93Z" fill="#fff"/><path d="M142.25,81.86V53c7.35,0,14.69-.45,21.95.15,5.51.45,9,4.34,9.94,9.81,1.07,5.92-.15,11.5-5.37,15A24.78,24.78,0,0,1,158.4,81.7C153.24,82.33,147.94,81.86,142.25,81.86Z" fill="#fff"/><path d="M345.88,95.23H321.45L333.25,56.7l.76,0Z" fill="#fff"/></svg>