<svg xmlns="http://www.w3.org/2000/svg" viewBox="0 0 300 300"><title>Asset 7</title><path d="M300,0H0V300H300ZM274.88,275.11H25V25.28H274.88Z" fill="#fff"/><path d="M104,161.18c.06-5.59-.08-11.2.29-16.78.3-4.56,3-6.82,7.21-6.76s6.54,2.14,6.89,6.73c.37,4.77.26,9.58.31,14.37,0,4,0,7.93,0,12h11.21c0-5.85.08-11.43,0-17-.08-4.69.09-9.45-.67-14-1.82-11-13.1-16.13-22.94-10.71-.65.36-1.32.68-2.4,1.23v-19l-11,5.54v53.89H104C104,167.36,103.93,164.27,104,161.18Z" fill="#fff"/><path d="M237.81,161.78a11.37,11.37,0,0,1-5,.31c-4.44-.84-8.82-2-13.5-3.06L216,166.75c7.43,5.4,20.76,6.76,28.63,3.06s9.53-15,2.74-20.24c-3.14-2.43-7.23-3.66-10.94-5.32-2.09-.93-4.37-1.45-6.38-2.51a3.44,3.44,0,0,1-1.66-2.72,3.42,3.42,0,0,1,2.48-2,22.74,22.74,0,0,1,6.84.13c3,.58,5.85,1.7,9,2.65l3.56-8.64c-8.15-3.86-16.25-5.48-24.82-2.73-4.91,1.58-7.92,4.89-8.34,10.21-.45,5.66,1.76,9.83,6.83,12.17,3.07,1.41,6.34,2.39,9.5,3.6a33.52,33.52,0,0,1,5.46,2.34,3.15,3.15,0,0,1,1.2,2.71A3.77,3.77,0,0,1,237.81,161.78Z" fill="#fff"/><path d="M70.34,161.79a9.35,9.35,0,0,1-4.43.32c-4.64-.84-9.24-1.92-14.07-3L48.33,167c8.79,4.66,17.54,6.37,26.9,3.55C80.47,169,83.41,165.39,84,160s-1.71-9.78-6.67-12.32a85.11,85.11,0,0,0-8-3.25,67.64,67.64,0,0,1-6.68-2.6,3.45,3.45,0,0,1-1.68-2.73A3.43,3.43,0,0,1,63.39,137a27.12,27.12,0,0,1,7.43.25,75.66,75.66,0,0,1,8.42,2.64l3.37-8.79c-8.23-3.89-16.26-5.38-24.73-2.66C53,130,50,133.64,49.63,138.37c-.45,5.81,1.62,10,6.58,12.31,3.14,1.49,6.51,2.5,9.77,3.74a29.08,29.08,0,0,1,5.22,2.16,3.56,3.56,0,0,1,1.41,2.9A3.74,3.74,0,0,1,70.34,161.79Z" fill="#fff"/><path d="M186.8,142.2c0,5.19-.14,10.39.06,15.58a21.63,21.63,0,0,0,1.33,7.59c3,7,11.2,8.57,18.83,3.8L208.7,158c-1.55,1-2.5,1.72-3.52,2.28-3,1.65-6.57.68-6.72-2.16-.33-6.43-.1-12.88-.1-19.64h10V127.88H198.12V111.24L186.62,117v11h-6.76v10.61h6.94Z" fill="#fff"/><path d="M156.39,171.91c9,.06,16.73-6.3,18.79-16.65,1.65-8.3.46-16.21-5.67-22.6a18,18,0,0,0-26.23,0c-6.13,6.39-7.32,14.31-5.67,22.6C139.66,165.61,147.34,172,156.39,171.91ZM150,142.17a6.92,6.92,0,0,1,12.71,0,16.66,16.66,0,0,1-.35,15.27,6.8,6.8,0,0,1-12,0A16.66,16.66,0,0,1,150,142.17Z" fill="#fff"/></svg>