<svg xmlns="http://www.w3.org/2000/svg" viewBox="0 0 300 300"><title>Asset 1</title><path d="M126,168.77c-7.28,9.86-9.14,16.23-8.68,18.11.29,1.18,1.33,1.8,3,1.8,5.68,0,12-5.84,19.07-17.41a23.89,23.89,0,0,1-1.2-2.82,12.61,12.61,0,0,1,1.9-9.94,9.65,9.65,0,0,1,2.68-2.3,1.36,1.36,0,0,0-1.1-.56C139.63,155.65,133.76,158.4,126,168.77Z" fill="#fff"/><path d="M186.34,155.65c-2,0-7.84,2.75-15.64,13.11-7.23,9.86-9.13,16.23-8.68,18.11.32,1.18,1.33,1.8,3,1.8,5.59,0,12.07-5.92,19.05-17.33a13.84,13.84,0,0,1-1.16-2.9,12.48,12.48,0,0,1,1.88-9.94,11.27,11.27,0,0,1,2.43-2.38A.87.87,0,0,0,186.34,155.65Z" fill="#fff"/><path d="M150,0A150,150,0,1,0,300,150,150,150,0,0,0,150,0ZM70.6,203.89a30,30,0,0,0-8.41,1.43c10.53-21.22,45.73-91.45,48.57-95.17-5.85-1.1-7.36-1.39-12.89-2.21a116.17,116.17,0,0,0-23-1.54c-7.45.34-13,1.7-17.31,4.06-.35.18-.27.44-.17.71a.68.68,0,0,0,.69.27c8.13-.51,10.18,5.67,9.82,9.37-.6,6.31-4.44,10-11.14,10.65a13,13,0,0,1-7.34-1.05A12.41,12.41,0,0,1,43,124.12a17.66,17.66,0,0,1,.85-16.71c5.89-9,17.38-13.36,33.32-13.16,11.2,0,24.53,1.91,33.89,3,7.26.81,12.92,1.62,18.74,2.06,1.52.08,3.58.08,6.25.29,8.43.42,25.47.77,39-2.92l3.23,8c-18.17,6.67-40.65,6.95-52.07,6.25L80.6,205.22A29.75,29.75,0,0,0,70.6,203.89Zm139.76-28.83c-3.69,10.28-4.57,15-4.6,17.7,0,2.43.5,3.86,3.34,3.62a26.91,26.91,0,0,0,10.63-3c2.75-1.29,5.4-3,5.93-3.23l2.72,8.22c-5.69,3.59-17.61,9-24.88,7-5-1.32-7.85-4.27-9.13-9.23-1-4.06.17-10.45,2.89-18.1a12.69,12.69,0,0,1-6.61.14c-7.19,12.67-16.58,19.38-26.22,19.38a13.6,13.6,0,0,1-13.16-10.09,23,23,0,0,1-.21-8.71,16.85,16.85,0,0,1-5.07-1c-7.22,12.63-16.69,19.78-26.29,19.78a13.56,13.56,0,0,1-13.17-10.09c-2.26-8.71,1.7-19.86,10.15-28.43,8-8,16.5-12.5,23.93-12.5,5.28,0,9.47,3.11,10.72,7.9,1.12,4.12.59,9.63-1.75,15.54a8.63,8.63,0,0,0,2.37.32,9.58,9.58,0,0,0,1.48,0,41.1,41.1,0,0,1,8-11.29c8-8,16.46-12.5,24-12.5,5.26,0,9.45,3.11,10.67,7.9,1.1,4.12.67,8.91-1.43,14.68a8.82,8.82,0,0,0,2.95-.05,12.52,12.52,0,0,0,3.39-.86,337.66,337.66,0,0,1,16.24-31.56c12.34-21.06,25.24-32.06,34.2-32.06,4.09,0,9.86,4.06,10,10.71C261.59,125.89,249.14,155,210.36,175.06Z" fill="#fff"/><path d="M245.24,118.09c-2.84,2.87-8.74,10.47-13,16.93-6.58,10.1-14.89,25.18-14.89,25.18a125.19,125.19,0,0,0,21.46-19.75c8.62-9.82,11.08-16.17,12.36-20.61C252.9,113.57,249.84,113.4,245.24,118.09Z" fill="#fff"/></svg>